# xmcd
#
# Track frame offsets:
#  150
#  16564
#  35670
#  53353
#  66879
#  85622
#  98656
#  115019
#  133701
#  152127
#  167986
#
# Disc length: 2528 seconds
#
# Revision: 0
# Processed by: cddbd v1.5.1PL2 Copyright (c) Steve Scherf et al.
# Submitted via: Collectorz.com_Music_Collector 6.9
#
DISCID=7c09de0b
DTITLE=Sugarland - Twice the Speed of Life
DYEAR=2004
DGENRE=Country
TTITLE0=Something More
TTITLE1=Baby Girl
TTITLE2=Hello
TTITLE3=Tennessee
TTITLE4=Just Might (Make Me Believe)
TTITLE5=Down to Mississippi (Up To No Good)
TTITLE6=Fly Away
TTITLE7=Speed of Life
TTITLE8=Small town Jericho
TTITLE9=Time, Time, Time
TTITLE10=Stand Back Up
EXTD=
EXTT0=
EXTT1=
EXTT2=
EXTT3=
EXTT4=
EXTT5=
EXTT6=
EXTT7=
EXTT8=
EXTT9=
EXTT10=
PLAYORDER=
